<?xml version="1.0" standalone="no"?><!-- Generator: Gravit.io --><svg xmlns="http://www.w3.org/2000/svg" xmlns:xlink="http://www.w3.org/1999/xlink" style="isolation:isolate" viewBox="0 0 100 625.977" width="100" height="625.977"><defs><clipPath id="_clipPath_qSyN37MggIt49VByQt7JmIcJsK2BGQ2R"><rect width="100" height="625.977"/></clipPath></defs><g clip-path="url(#_clipPath_qSyN37MggIt49VByQt7JmIcJsK2BGQ2R)"><path d=" M 4.59 323.926 L 75.977 342.09 L 75.977 359.326 L 38.477 368.994 L 38.477 368.994 Q 36.475 369.531 30.2 370.825 L 30.2 370.825 L 30.2 370.825 Q 23.926 372.119 21.777 372.314 L 21.777 372.314 L 21.777 372.314 Q 24.414 372.607 30.249 373.779 L 30.249 373.779 L 30.249 373.779 Q 36.084 374.951 38.574 375.586 L 38.574 375.586 L 75.977 385.205 L 75.977 402.393 L 4.59 420.605 L 4.59 405.713 L 43.555 396.582 L 43.555 396.582 Q 54.346 394.189 62.256 393.115 L 62.256 393.115 L 62.256 393.115 Q 59.473 392.822 53.638 391.772 L 53.638 391.772 L 53.638 391.772 Q 47.803 390.723 44.58 389.795 L 44.58 389.795 L 4.59 379.395 L 4.59 365.088 L 44.58 354.688 L 44.58 354.688 Q 47.266 354.004 52.783 352.979 L 52.783 352.979 L 52.783 352.979 Q 58.301 351.953 62.256 351.416 L 62.256 351.416 L 62.256 351.416 Q 58.447 350.928 52.759 349.854 L 52.759 349.854 L 52.759 349.854 Q 47.07 348.779 43.555 347.9 L 43.555 347.9 L 4.59 338.818 L 4.59 323.926 Z  M 40.381 265.723 L 75.977 265.723 L 75.977 280.615 L 44.092 280.615 L 44.092 280.615 Q 32.275 280.615 32.275 289.404 L 32.275 289.404 L 32.275 289.404 Q 32.275 295.654 36.523 298.438 L 36.523 298.438 L 36.523 298.438 Q 40.771 301.221 50.293 301.221 L 50.293 301.221 L 75.977 301.221 L 75.977 316.113 L 0 316.113 L 0 301.221 L 15.479 301.221 L 15.479 301.221 Q 17.285 301.221 23.975 301.563 L 23.975 301.563 L 28.369 301.904 L 28.369 301.123 L 28.369 301.123 Q 20.361 296.143 20.361 285.303 L 20.361 285.303 L 20.361 285.303 Q 20.361 275.684 25.537 270.703 L 25.537 270.703 L 25.537 270.703 Q 30.713 265.723 40.381 265.723 L 40.381 265.723 Z  M 7.275 251.025 L 7.275 251.025 L 7.275 251.025 Q 0 251.025 0 242.92 L 0 242.92 L 0 242.92 Q 0 234.814 7.275 234.814 L 7.275 234.814 L 7.275 234.814 Q 10.742 234.814 12.671 236.841 L 12.671 236.841 L 12.671 236.841 Q 14.6 238.867 14.6 242.92 L 14.6 242.92 L 14.6 242.92 Q 14.6 251.025 7.275 251.025 Z  M 21.387 235.498 L 75.977 235.498 L 75.977 250.391 L 21.387 250.391 L 21.387 235.498 Z  M 59.766 181.787 L 59.766 181.787 L 59.766 181.787 Q 68.164 181.787 72.559 187.622 L 72.559 187.622 L 72.559 187.622 Q 76.953 193.457 76.953 205.078 L 76.953 205.078 L 76.953 205.078 Q 76.953 211.035 76.147 215.234 L 76.147 215.234 L 76.147 215.234 Q 75.342 219.434 73.779 223.096 L 73.779 223.096 L 61.475 223.096 L 61.475 223.096 Q 63.428 218.945 64.746 213.745 L 64.746 213.745 L 64.746 213.745 Q 66.064 208.545 66.064 204.59 L 66.064 204.59 L 66.064 204.59 Q 66.064 196.484 61.377 196.484 L 61.377 196.484 L 61.377 196.484 Q 59.619 196.484 58.521 197.559 L 58.521 197.559 L 58.521 197.559 Q 57.422 198.633 56.03 201.27 L 56.03 201.27 L 56.03 201.27 Q 54.639 203.906 52.783 208.301 L 52.783 208.301 L 52.783 208.301 Q 50.146 214.6 47.9 217.554 L 47.9 217.554 L 47.9 217.554 Q 45.654 220.508 42.749 221.851 L 42.749 221.851 L 42.749 221.851 Q 39.844 223.193 35.596 223.193 L 35.596 223.193 L 35.596 223.193 Q 28.32 223.193 24.341 217.554 L 24.341 217.554 L 24.341 217.554 Q 20.361 211.914 20.361 201.563 L 20.361 201.563 L 20.361 201.563 Q 20.361 191.699 24.658 182.373 L 24.658 182.373 L 35.4 186.865 L 35.4 186.865 Q 33.643 190.967 32.52 194.531 L 32.52 194.531 L 32.52 194.531 Q 31.396 198.096 31.396 201.807 L 31.396 201.807 L 31.396 201.807 Q 31.396 208.398 34.961 208.398 L 34.961 208.398 L 34.961 208.398 Q 36.963 208.398 38.428 206.274 L 38.428 206.274 L 38.428 206.274 Q 39.893 204.15 42.773 196.973 L 42.773 196.973 L 42.773 196.973 Q 45.361 190.576 47.607 187.598 L 47.607 187.598 L 47.607 187.598 Q 49.854 184.619 52.783 183.203 L 52.783 183.203 L 52.783 183.203 Q 55.713 181.787 59.766 181.787 Z  M 46.289 156.055 L 46.289 155.859 L 37.988 149.365 L 21.387 134.082 L 21.387 117.285 L 45.068 138.965 L 75.977 115.967 L 75.977 133.154 L 53.857 148.877 L 58.984 155.273 L 75.977 155.273 L 75.977 170.166 L 0 170.166 L 0 155.273 L 33.887 155.273 L 46.289 156.055 Z  M 30.957 85.547 L 30.957 85.547 L 30.957 85.547 Q 30.957 90.283 33.96 92.969 L 33.96 92.969 L 33.96 92.969 Q 36.963 95.654 42.48 96.045 L 42.48 96.045 L 42.48 75.146 L 42.48 75.146 Q 36.963 75.244 33.96 78.027 L 33.96 78.027 L 33.96 78.027 Q 30.957 80.811 30.957 85.547 Z  M 76.953 83.447 L 76.953 83.447 L 76.953 83.447 Q 76.953 96.631 69.678 104.053 L 69.678 104.053 L 69.678 104.053 Q 62.402 111.475 49.072 111.475 L 49.072 111.475 L 49.072 111.475 Q 35.352 111.475 27.856 104.614 L 27.856 104.614 L 27.856 104.614 Q 20.361 97.754 20.361 85.645 L 20.361 85.645 L 20.361 85.645 Q 20.361 74.072 26.953 67.627 L 26.953 67.627 L 26.953 67.627 Q 33.545 61.182 45.166 61.182 L 45.166 61.182 L 52.393 61.182 L 52.393 96.387 L 52.393 96.387 Q 58.74 96.143 62.305 92.627 L 62.305 92.627 L 62.305 92.627 Q 65.869 89.111 65.869 82.764 L 65.869 82.764 L 65.869 82.764 Q 65.869 77.832 64.844 73.438 L 64.844 73.438 L 64.844 73.438 Q 63.818 69.043 61.572 64.258 L 61.572 64.258 L 73.096 64.258 L 73.096 64.258 Q 75.049 68.164 76.001 72.607 L 76.001 72.607 L 76.001 72.607 Q 76.953 77.051 76.953 83.447 Z  M 75.586 35.205 L 21.387 56.885 L 21.387 40.576 L 52.1 30.273 L 52.1 30.273 Q 56.104 28.955 61.572 28.467 L 61.572 28.467 L 61.572 28.174 L 61.572 28.174 Q 56.543 27.637 52.1 26.074 L 52.1 26.074 L 21.387 15.967 L 21.387 0 L 82.959 23.096 L 82.959 23.096 Q 91.504 26.27 95.752 32.153 L 95.752 32.153 L 95.752 32.153 Q 100 38.037 100 45.898 L 100 45.898 L 100 45.898 Q 100 49.756 99.17 53.467 L 99.17 53.467 L 87.354 53.467 L 87.354 53.467 Q 87.988 50.781 87.988 47.607 L 87.988 47.607 L 87.988 47.607 Q 87.988 43.652 85.571 40.698 L 85.571 40.698 L 85.571 40.698 Q 83.154 37.744 78.271 36.084 L 78.271 36.084 L 75.586 35.205 Z  M 16.992 610.84 L 36.279 610.84 L 36.279 605.957 L 36.279 605.957 Q 36.279 598.779 33.887 595.361 L 33.887 595.361 L 33.887 595.361 Q 31.494 591.943 26.367 591.943 L 26.367 591.943 L 26.367 591.943 Q 21.289 591.943 19.141 595.435 L 19.141 595.435 L 19.141 595.435 Q 16.992 598.926 16.992 606.25 L 16.992 606.25 L 16.992 610.84 Z  M 48.584 602.783 L 48.584 610.84 L 75.977 610.84 L 75.977 625.977 L 4.59 625.977 L 4.59 605.176 L 4.59 605.176 Q 4.59 590.625 9.888 583.643 L 9.888 583.643 L 9.888 583.643 Q 15.186 576.66 25.977 576.66 L 25.977 576.66 L 25.977 576.66 Q 32.275 576.66 37.183 580.127 L 37.183 580.127 L 37.183 580.127 Q 42.09 583.594 44.873 589.941 L 44.873 589.941 L 44.873 589.941 Q 68.945 573.828 75.977 568.945 L 75.977 568.945 L 75.977 585.742 L 48.584 602.783 Z  M 30.957 538.525 L 30.957 538.525 L 30.957 538.525 Q 30.957 543.262 33.96 545.947 L 33.96 545.947 L 33.96 545.947 Q 36.963 548.633 42.48 549.023 L 42.48 549.023 L 42.48 528.125 L 42.48 528.125 Q 36.963 528.223 33.96 531.006 L 33.96 531.006 L 33.96 531.006 Q 30.957 533.789 30.957 538.525 Z  M 76.953 536.426 L 76.953 536.426 L 76.953 536.426 Q 76.953 549.609 69.678 557.031 L 69.678 557.031 L 69.678 557.031 Q 62.402 564.453 49.072 564.453 L 49.072 564.453 L 49.072 564.453 Q 35.352 564.453 27.856 557.593 L 27.856 557.593 L 27.856 557.593 Q 20.361 550.732 20.361 538.623 L 20.361 538.623 L 20.361 538.623 Q 20.361 527.051 26.953 520.605 L 26.953 520.605 L 26.953 520.605 Q 33.545 514.16 45.166 514.16 L 45.166 514.16 L 52.393 514.16 L 52.393 549.365 L 52.393 549.365 Q 58.74 549.121 62.305 545.605 L 62.305 545.605 L 62.305 545.605 Q 65.869 542.09 65.869 535.742 L 65.869 535.742 L 65.869 535.742 Q 65.869 530.811 64.844 526.416 L 64.844 526.416 L 64.844 526.416 Q 63.818 522.021 61.572 517.236 L 61.572 517.236 L 73.096 517.236 L 73.096 517.236 Q 75.049 521.143 76.001 525.586 L 76.001 525.586 L 76.001 525.586 Q 76.953 530.029 76.953 536.426 Z  M 76.953 484.766 L 76.953 484.766 L 76.953 484.766 Q 76.953 494.385 69.482 499.878 L 69.482 499.878 L 69.482 499.878 Q 62.012 505.371 48.779 505.371 L 48.779 505.371 L 48.779 505.371 Q 35.352 505.371 27.856 499.78 L 27.856 499.78 L 27.856 499.78 Q 20.361 494.189 20.361 484.375 L 20.361 484.375 L 20.361 484.375 Q 20.361 474.072 28.369 468.652 L 28.369 468.652 L 28.369 468.164 L 28.369 468.164 Q 22.266 469.287 17.48 469.287 L 17.48 469.287 L 0 469.287 L 0 454.346 L 75.977 454.346 L 75.977 465.771 L 68.896 468.652 L 68.896 469.287 L 68.896 469.287 Q 76.953 474.365 76.953 484.766 Z  M 65.088 479.541 L 65.088 479.541 L 65.088 479.541 Q 65.088 473.828 61.768 471.167 L 61.768 471.167 L 61.768 471.167 Q 58.447 468.506 50.488 468.262 L 50.488 468.262 L 48.877 468.262 L 48.877 468.262 Q 40.088 468.262 36.279 470.972 L 36.279 470.972 L 36.279 470.972 Q 32.471 473.682 32.471 479.785 L 32.471 479.785 L 32.471 479.785 Q 32.471 484.766 36.694 487.524 L 36.694 487.524 L 36.694 487.524 Q 40.918 490.283 48.975 490.283 L 48.975 490.283 L 48.975 490.283 Q 57.031 490.283 61.06 487.5 L 61.06 487.5 L 61.06 487.5 Q 65.088 484.717 65.088 479.541 Z " fill-rule="evenodd" fill="rgb(255,143,125)"/></g></svg>